<svg xmlns="http://www.w3.org/2000/svg" xmlns:xlink="http://www.w3.org/1999/xlink" version="1.1" id="Livello_1" x="0px" y="0px" viewBox="0 0 477.29 100" style="enable-background:new 0 0 477.29 100;" xml:space="preserve"><script xmlns="" id="eppiocemhmnlbhjplcgkofciiegomcon"/><script xmlns=""/><script xmlns=""/>
<style type="text/css">
	.st0{fill:#2EAE7A;}
	.st1{fill:#FFFFFF;}
</style>
<g id="Trustpilot_ratings_5star-RGB">
	<g>
		<rect id="Rectangle-path_5_" x="4.1" y="5.7" class="st0" width="88.1" height="88.1"/>
		<rect id="Rectangle-path_1_" x="99.6" y="5.7" class="st0" width="88.1" height="88.1"/>
		<rect id="Rectangle-path_2_" x="195" y="5.7" class="st0" width="88.1" height="88.1"/>
		<rect id="Rectangle-path_3_" x="290.5" y="5.7" class="st0" width="88.1" height="88.1"/>
		<rect id="Rectangle-path_4_" x="386" y="5.7" class="st0" width="88.1" height="88.1"/>
		<path id="Shape_5_" class="st1" d="M48.2,65.1l13.4-3.4L67.2,79L48.2,65.1z M79,42.8H55.4l-7.3-22.2l-7.3,22.2H17.3l19.1,13.8    l-7.3,22.2L48.2,65L60,56.6L79,42.8L79,42.8L79,42.8L79,42.8z"/>
		<path id="Shape_1_" class="st1" d="M143.6,65.1l13.4-3.4l5.6,17.3L143.6,65.1z M174.5,42.8h-23.6l-7.3-22.2l-7.3,22.2h-23.6    l19.1,13.8l-7.3,22.2L143.6,65l11.8-8.4L174.5,42.8L174.5,42.8L174.5,42.8L174.5,42.8z"/>
		<path id="Shape_2_" class="st1" d="M239.1,65.1l13.4-3.4l5.6,17.3L239.1,65.1z M270,42.8h-23.6l-7.3-22.2l-7.3,22.2h-23.6    l19.1,13.8l-7.2,22.2L239.2,65l11.8-8.4L270,42.8L270,42.8L270,42.8L270,42.8z"/>
		<path id="Shape_3_" class="st1" d="M334.6,65.1l13.4-3.4l5.6,17.3L334.6,65.1z M365.4,42.8h-23.6l-7.3-22.2l-7.3,22.2h-23.6    l19.1,13.8l-7.3,22.2L334.5,65l11.8-8.4L365.4,42.8L365.4,42.8L365.4,42.8L365.4,42.8z"/>
		<path id="Shape_4_" class="st1" d="M430.1,65.1l13.4-3.4l5.6,17.3L430.1,65.1z M460.9,42.8h-23.6l-7.2-22.2l-7.3,22.2h-23.6    l19.1,13.8l-7.2,22.2L430.2,65l11.8-8.4L460.9,42.8L460.9,42.8L460.9,42.8L460.9,42.8z"/>
	</g>
</g>
</svg>